<svg xmlns="http://www.w3.org/2000/svg" viewBox="0 0 382.58 269.91"><defs><style>.cls-1{fill:#fff;}.cls-2{fill:#28393f;}.cls-3{fill:#506a74;}.cls-4{fill:#f3f5f6;}.cls-5{fill:#e8e8e8;}</style></defs><title>bottom-pokeball</title><g id="Слой_2" data-name="Слой 2"><g id="Слой_1-2" data-name="Слой 1"><path class="cls-1" d="M191.29,262.41A183.79,183.79,0,0,1,7.5,78.62v-7.5H375.08v7.5C375.08,180,292.63,262.41,191.29,262.41Z"/><path class="cls-2" d="M367.58,78.62A176.29,176.29,0,0,1,15,78.62H367.58m15-15H0v15A191.13,191.13,0,0,0,191.29,269.91a190.75,190.75,0,0,0,135.26-56,190.75,190.75,0,0,0,56-135.26v-15Z"/><circle class="cls-3" cx="192.29" cy="78.62" r="71.12"/><path class="cls-2" d="M192.29,15a63.62,63.62,0,1,1-63.62,63.62A63.62,63.62,0,0,1,192.29,15m0-15a78.62,78.62,0,1,0,78.62,78.62A78.71,78.71,0,0,0,192.29,0Z"/><circle class="cls-4" cx="192.29" cy="78.62" r="39.7"/><path class="cls-2" d="M192.29,46.42a32.2,32.2,0,1,1-32.2,32.2,32.19,32.19,0,0,1,32.2-32.2m0-15a47.2,47.2,0,1,0,47.2,47.2,47.25,47.25,0,0,0-47.2-47.2Z"/><path class="cls-5" d="M367.58,78.62a176.29,176.29,0,0,1-301.1,124.5C260.18,262.07,314.6,126.49,329,78.62Z"/></g></g></svg>