<svg xmlns="http://www.w3.org/2000/svg" viewBox="0 0 382.58 206.29"><defs><style>.cls-1{fill:#d86865;}.cls-2{fill:#28393f;}.cls-3{fill:#d4554d;}</style></defs><title>top-pokeball</title><g id="Слой_2" data-name="Слой 2"><g id="Слой_1-2" data-name="Слой 1"><path class="cls-1" d="M247.41,198.79v-7.5a56.12,56.12,0,0,0-112.24,0v7.5H7.5v-7.5C7.5,90,90,7.5,191.29,7.5A183.8,183.8,0,0,1,375.08,191.29v7.5Z"/><path class="cls-2" d="M191.29,15A176.3,176.3,0,0,1,367.58,191.29H254.91a63.62,63.62,0,0,0-127.24,0H15A176.29,176.29,0,0,1,191.29,15m0-15A191.15,191.15,0,0,0,0,191.29v15H142.67v-15a48.62,48.62,0,0,1,97.24,0v15H382.58v-15A190.42,190.42,0,0,0,341.43,72.76a193,193,0,0,0-65.36-53A189.38,189.38,0,0,0,191.29,0Z"/><path class="cls-3" d="M329.66,191.29c7-21.71,7.85-58,0-109.23a175.48,175.48,0,0,1,37.92,109.23Z"/></g></g></svg>